<svg width="28" height="31" viewBox="0 0 28 31" fill="none" xmlns="http://www.w3.org/2000/svg">
<path fill-rule="evenodd" clip-rule="evenodd" d="M27.0943 8.17966L26.8843 7.80468C26.6134 7.35123 26.2314 6.97436 25.7744 6.70973L15.7098 0.904982C15.2541 0.640619 14.7368 0.50093 14.2099 0.5H13.7749C13.248 0.50093 12.7306 0.640619 12.275 0.904982L2.21041 6.72473C1.75589 6.9876 1.37834 7.36515 1.11546 7.81968L0.90547 8.19466C0.641107 8.6504 0.501418 9.16773 0.500488 9.6946V21.3191C0.501418 21.846 0.641107 22.3633 0.90547 22.819L1.11546 23.194C1.38513 23.6432 1.76117 24.0193 2.21041 24.289L12.29 30.0937C12.7434 30.3635 13.2622 30.5036 13.7899 30.4987H14.2099C14.7368 30.4978 15.2541 30.3581 15.7098 30.0937L25.7744 24.274C26.2334 24.017 26.6124 23.638 26.8693 23.179L27.0943 22.804C27.3555 22.347 27.4949 21.8306 27.4993 21.3041V9.6796C27.4984 9.15273 27.3588 8.6354 27.0943 8.17966ZM13.7749 3.49987H14.2099L22.9995 8.56964L13.9999 13.7594L5.00029 8.56964L13.7749 3.49987ZM15.4998 26.7488L24.2744 21.6791L24.4994 21.3041V11.1645L15.4998 16.3693V26.7488Z" fill="#232222"/>
</svg>
