<svg width="25" height="25" viewBox="0 0 25 25" fill="none" xmlns="http://www.w3.org/2000/svg">
<path d="M18.6667 25.0004C16.4617 24.9984 14.2911 24.4534 12.3467 23.4137L11.7467 23.0804C7.601 20.8514 4.20225 17.4526 1.97333 13.307L1.64 12.707C0.573094 10.7516 0.00950749 8.56129 8.29008e-07 6.33369V5.44036C-0.000559171 4.72964 0.282614 4.04809 0.786667 3.54702L3.04 1.29369C3.25884 1.07316 3.56775 0.966863 3.87595 1.00604C4.18415 1.04521 4.45664 1.22542 4.61333 1.49369L7.61333 6.64036C7.91671 7.16421 7.82911 7.8267 7.4 8.25369L4.88 10.7737C4.67072 10.9806 4.62196 11.3004 4.76 11.5604L5.22667 12.4404C6.90272 15.5449 9.4524 18.09 12.56 19.7604L13.44 20.2404C13.7 20.3784 14.0197 20.3296 14.2267 20.1204L16.7467 17.6004C17.1736 17.1713 17.8361 17.0837 18.36 17.387L23.5067 20.387C23.7749 20.5437 23.9552 20.8162 23.9943 21.1244C24.0335 21.4326 23.9272 21.7416 23.7067 21.9604L21.4533 24.2137C20.9523 24.7177 20.2707 25.0009 19.56 25.0004H18.6667Z" fill="#232222"/>
</svg>
